<?xml version="1.0" encoding="UTF-8"?>
<!DOCTYPE svg PUBLIC "-//W3C//DTD SVG 1.1//EN" "http://www.w3.org/Graphics/SVG/1.1/DTD/svg11.dtd">
<svg xmlns="http://www.w3.org/2000/svg" version="1.1" width="192px" height="192px" style="shape-rendering:geometricPrecision; text-rendering:geometricPrecision; image-rendering:optimizeQuality; fill-rule:evenodd; clip-rule:evenodd" xmlns:xlink="http://www.w3.org/1999/xlink">
<g><path style="opacity:0.992" fill="#ccd5dc" d="M 191.5,54.5 C 191.5,80.5 191.5,106.5 191.5,132.5C 150.5,132.5 109.5,132.5 68.5,132.5C 68.5,109.167 68.5,85.8333 68.5,62.5C 69.0318,52.4592 74.0318,45.6259 83.5,42C 114.833,41.3333 146.167,41.3333 177.5,42C 183.631,44.6359 188.297,48.8026 191.5,54.5 Z"/></g>
<g><path style="opacity:0.981" fill="#fecb4d" d="M 68.5,62.5 C 68.5,85.8333 68.5,109.167 68.5,132.5C 45.5,132.5 22.5,132.5 -0.5,132.5C -0.5,122.5 -0.5,112.5 -0.5,102.5C 4.87716,92.7494 10.0438,82.7494 15,72.5C 19.2188,67.1396 24.7188,63.973 31.5,63C 43.8288,62.5001 56.1622,62.3335 68.5,62.5 Z"/></g>
<g><path style="opacity:1" fill="#56acec" d="M 47.5,105.5 C 35.3217,105.828 23.3217,105.495 11.5,104.5C 13.9879,98.8549 16.4879,93.1882 19,87.5C 24.987,75.7601 34.487,71.4267 47.5,74.5C 47.5,84.8333 47.5,95.1667 47.5,105.5 Z"/></g>
<g><path style="opacity:1" fill="#98b8ad" d="M 11.5,104.5 C 23.3217,105.495 35.3217,105.828 47.5,105.5C 35.327,106.825 22.9937,106.825 10.5,105.5C 10.6236,104.893 10.9569,104.56 11.5,104.5 Z"/></g>
<g><path style="opacity:0.984" fill="#dc3145" d="M -0.5,132.5 C 22.5,132.5 45.5,132.5 68.5,132.5C 109.5,132.5 150.5,132.5 191.5,132.5C 191.5,138.833 191.5,145.167 191.5,151.5C 186.415,162.382 177.748,167.049 165.5,165.5C 162.277,148.207 151.943,141.374 134.5,145C 126.692,149.813 122.359,156.646 121.5,165.5C 104.167,165.5 86.8333,165.5 69.5,165.5C 66.2767,148.207 55.9434,141.374 38.5,145C 30.6922,149.813 26.3589,156.646 25.5,165.5C 13.2519,167.049 4.5852,162.382 -0.5,151.5C -0.5,145.167 -0.5,138.833 -0.5,132.5 Z"/></g>
<g><path style="opacity:0.968" fill="#2a2f33" d="M 69.5,165.5 C 69.6896,173.624 66.3563,179.79 59.5,184C 45.8834,190.016 35.0501,186.85 27,174.5C 26.0467,171.568 25.5467,168.568 25.5,165.5C 26.3589,156.646 30.6922,149.813 38.5,145C 55.9434,141.374 66.2767,148.207 69.5,165.5 Z"/></g>
<g><path style="opacity:0.968" fill="#2a2f33" d="M 165.5,165.5 C 165.69,173.624 162.356,179.79 155.5,184C 141.883,190.016 131.05,186.85 123,174.5C 122.047,171.568 121.547,168.568 121.5,165.5C 122.359,156.646 126.692,149.813 134.5,145C 151.943,141.374 162.277,148.207 165.5,165.5 Z"/></g>
<g><path style="opacity:1" fill="#c5cfd6" d="M 42.5,154.5 C 52.84,153.023 58.0066,157.356 58,167.5C 55.3859,174.157 50.5526,176.657 43.5,175C 34.6253,168.585 34.292,161.751 42.5,154.5 Z"/></g>
<g><path style="opacity:1" fill="#c5cfd6" d="M 138.5,154.5 C 148.84,153.023 154.007,157.356 154,167.5C 151.386,174.157 146.553,176.657 139.5,175C 130.625,168.585 130.292,161.751 138.5,154.5 Z"/></g>
</svg>
